<mxfile host="app.diagrams.net" modified="2021-02-14T02:50:00.369Z" agent="5.0 (Macintosh; Intel Mac OS X 11_2_0) AppleWebKit/537.36 (KHTML, like Gecko) Chrome/88.0.4324.150 Safari/537.36" etag="1BZy_X8jAGm6rXp2258P" version="14.2.9" type="github">
  <diagram id="m_lllNl9LTWqUhMwTabO" name="第 1 页">
    <mxGraphModel dx="1577" dy="1023" grid="1" gridSize="10" guides="1" tooltips="1" connect="1" arrows="1" fold="1" page="1" pageScale="1" pageWidth="1169" pageHeight="827" background="#ffffff" math="0" shadow="0">
      <root>
        <mxCell id="0" />
        <mxCell id="1" parent="0" />
        <UserObject label="" id="YW8jKXDIr0jUjsYwDINF-1">
          <mxCell style="ellipse;whiteSpace=wrap;html=1;aspect=fixed;sketch=0;fillColor=#fff2cc;strokeColor=#d6b656;" vertex="1" parent="1">
            <mxGeometry x="187.5" y="147.5" width="335" height="335" as="geometry" />
          </mxCell>
        </UserObject>
        <UserObject label="" id="YW8jKXDIr0jUjsYwDINF-2">
          <mxCell style="ellipse;whiteSpace=wrap;html=1;aspect=fixed;sketch=0;fillColor=#dae8fc;strokeColor=#6c8ebf;" vertex="1" parent="1">
            <mxGeometry x="225" y="185" width="260" height="260" as="geometry" />
          </mxCell>
        </UserObject>
        <UserObject label="" id="YW8jKXDIr0jUjsYwDINF-3">
          <mxCell style="ellipse;whiteSpace=wrap;html=1;aspect=fixed;sketch=0;fillColor=#dae8fc;strokeColor=#6c8ebf;" vertex="1" parent="1">
            <mxGeometry x="265" y="225" width="180" height="180" as="geometry" />
          </mxCell>
        </UserObject>
        <UserObject label="&lt;font style=&quot;font-size: 16px&quot;&gt;硬件&lt;/font&gt;" id="YW8jKXDIr0jUjsYwDINF-4">
          <mxCell style="ellipse;whiteSpace=wrap;html=1;aspect=fixed;sketch=0;fillColor=#f8cecc;strokeColor=#b85450;" vertex="1" parent="1">
            <mxGeometry x="303.75" y="263.75" width="102.5" height="102.5" as="geometry" />
          </mxCell>
        </UserObject>
        <mxCell id="YW8jKXDIr0jUjsYwDINF-5" value="&lt;font style=&quot;font-size: 16px&quot;&gt;用户&lt;/font&gt;" style="text;html=1;align=center;verticalAlign=middle;resizable=0;points=[];autosize=1;" vertex="1" parent="1">
          <mxGeometry x="330" y="120" width="50" height="20" as="geometry" />
        </mxCell>
        <mxCell id="YW8jKXDIr0jUjsYwDINF-6" value="&lt;font style=&quot;font-size: 16px&quot;&gt;内核&lt;/font&gt;" style="text;html=1;strokeColor=none;fillColor=none;align=center;verticalAlign=middle;whiteSpace=wrap;sketch=0;" vertex="1" parent="1">
          <mxGeometry x="335" y="238" width="40" height="20" as="geometry" />
        </mxCell>
        <mxCell id="YW8jKXDIr0jUjsYwDINF-7" value="&lt;span style=&quot;font-size: 16px&quot;&gt;GUI&lt;/span&gt;" style="text;html=1;strokeColor=none;fillColor=none;align=center;verticalAlign=middle;whiteSpace=wrap;sketch=0;" vertex="1" parent="1">
          <mxGeometry x="335" y="160" width="40" height="20" as="geometry" />
        </mxCell>
        <mxCell id="YW8jKXDIr0jUjsYwDINF-8" value="&lt;font style=&quot;font-size: 16px&quot;&gt;shell&lt;/font&gt;" style="text;html=1;strokeColor=none;fillColor=none;align=center;verticalAlign=middle;whiteSpace=wrap;sketch=0;" vertex="1" parent="1">
          <mxGeometry x="335" y="200" width="40" height="20" as="geometry" />
        </mxCell>
        <mxCell id="YW8jKXDIr0jUjsYwDINF-9" value="" style="endArrow=none;html=1;jumpStyle=arc;" edge="1" parent="1">
          <mxGeometry width="50" height="50" relative="1" as="geometry">
            <mxPoint x="398" y="169" as="sourcePoint" />
            <mxPoint x="618" y="169" as="targetPoint" />
          </mxGeometry>
        </mxCell>
        <mxCell id="YW8jKXDIr0jUjsYwDINF-12" value="&lt;font style=&quot;font-size: 15px&quot;&gt;命令界面&lt;/font&gt;" style="text;html=1;strokeColor=none;fillColor=none;align=center;verticalAlign=middle;whiteSpace=wrap;sketch=0;" vertex="1" parent="1">
          <mxGeometry x="630" y="160" width="70" height="20" as="geometry" />
        </mxCell>
        <mxCell id="YW8jKXDIr0jUjsYwDINF-13" value="&lt;span style=&quot;font-size: 15px&quot;&gt;shell 命令&lt;/span&gt;" style="text;html=1;strokeColor=none;fillColor=none;align=center;verticalAlign=middle;whiteSpace=wrap;sketch=0;" vertex="1" parent="1">
          <mxGeometry x="631" y="200" width="70" height="20" as="geometry" />
        </mxCell>
        <mxCell id="YW8jKXDIr0jUjsYwDINF-14" value="" style="endArrow=none;html=1;jumpStyle=arc;" edge="1" parent="1">
          <mxGeometry width="50" height="50" relative="1" as="geometry">
            <mxPoint x="397" y="209" as="sourcePoint" />
            <mxPoint x="617" y="209" as="targetPoint" />
          </mxGeometry>
        </mxCell>
        <mxCell id="YW8jKXDIr0jUjsYwDINF-15" value="" style="endArrow=none;html=1;jumpStyle=arc;" edge="1" parent="1">
          <mxGeometry width="50" height="50" relative="1" as="geometry">
            <mxPoint x="397" y="249" as="sourcePoint" />
            <mxPoint x="617" y="249" as="targetPoint" />
          </mxGeometry>
        </mxCell>
        <mxCell id="YW8jKXDIr0jUjsYwDINF-16" value="&lt;font style=&quot;font-size: 15px&quot;&gt;系统调用&lt;/font&gt;" style="text;html=1;align=center;verticalAlign=middle;resizable=0;points=[];autosize=1;" vertex="1" parent="1">
          <mxGeometry x="622" y="240" width="80" height="20" as="geometry" />
        </mxCell>
        <mxCell id="YW8jKXDIr0jUjsYwDINF-19" value="&lt;span&gt;Linux操作系统&lt;/span&gt;" style="whiteSpace=wrap;html=1;glass=0;sketch=0;strokeColor=#6c8ebf;fillColor=#dae8fc;" vertex="1" parent="1">
          <mxGeometry x="580" y="438" width="100" height="30" as="geometry" />
        </mxCell>
      </root>
    </mxGraphModel>
  </diagram>
</mxfile>
